<?xml version="1.0" encoding="UTF-8" standalone="no"?>
<!-- Created with Inkscape (http://www.inkscape.org/) -->

<svg
   width="1500"
   height="391.37799"
   viewBox="0 0 396.87502 103.55209"
   version="1.1"
   id="svg5"
   xmlns="http://www.w3.org/2000/svg"
   xmlns:svg="http://www.w3.org/2000/svg">
  <defs
     id="defs2" />
  <g
     id="layer1">
    <g
       id="g909"
       transform="translate(1099.3513,-410.58654)">
      <path
         d="m -1003.4682,487.00053 c -3.7184,0 -6.7451,-3.02666 -6.7451,-6.74501 0,-3.71838 3.0267,-6.74502 6.7451,-6.74502 3.71833,0 6.74504,3.02664 6.74504,6.74502 0,3.71835 -3.02671,6.74501 -6.74504,6.74501 m 0,-40.36368 c -18.5386,0 -33.6187,15.08316 -33.6187,33.62179 0,18.5355 15.0801,33.61554 33.6187,33.61554 18.53865,0 33.61868,-15.08004 33.61868,-33.61554 0,-18.53863 -15.08003,-33.62179 -33.61868,-33.62179"
         style="fill:#ffffff;fill-opacity:1;fill-rule:evenodd;stroke:none;stroke-width:3.12993"
         id="path159" />
      <path
         d="m -1003.4682,473.88797 c -3.5118,0 -6.3694,2.85451 -6.3694,6.3663 0,3.51491 2.8576,6.36943 6.3694,6.36943 3.5149,0 6.37257,-2.85452 6.37257,-6.36943 0,-3.51179 -2.85767,-6.3663 -6.37257,-6.3663 m 0,13.12383 c -3.7246,0 -6.7544,-3.02979 -6.7544,-6.75753 0,-3.72149 3.0298,-6.75443 6.7544,-6.75443 3.72461,0 6.75756,3.03294 6.75756,6.75443 0,3.72774 -3.03295,6.75753 -6.75756,6.75753 m 0,-40.179 c -18.429,0 -33.4184,14.99238 -33.4184,33.4246 0,18.42594 14.9894,33.41835 33.4184,33.41835 18.42909,0 33.42149,-14.99241 33.42149,-33.41835 0,-18.43222 -14.9924,-33.4246 -33.42149,-33.4246 m 0,67.24045 c -18.6482,0 -33.8159,-15.17082 -33.8159,-33.81585 0,-18.64818 15.1677,-33.8221 33.8159,-33.8221 18.6482,0 33.819,15.17392 33.819,33.8221 0,18.64503 -15.1708,33.81585 -33.819,33.81585"
         style="fill:#050606;fill-opacity:1;fill-rule:nonzero;stroke:none;stroke-width:3.12993"
         id="path163" />
      <path
         d="m -1003.4682,488.20492 c -4.3882,0 -7.9469,-3.56186 -7.9469,-7.95002 0,-4.38505 3.5587,-7.94694 7.9469,-7.94694 4.39131,0 7.95006,3.55875 7.95006,7.94694 0,4.38816 -3.56189,7.95002 -7.95006,7.95002 m 0,-40.08511 c -17.7186,0 -32.1351,14.41963 -32.1351,32.13509 0,17.71856 14.4165,32.13507 32.1351,32.13507 17.72173,0 32.13508,-14.41651 32.13508,-32.13507 0,-17.71546 -14.41335,-32.13509 -32.13508,-32.13509"
         style="fill:#141415;fill-opacity:1;fill-rule:evenodd;stroke:none;stroke-width:3.12993"
         id="path167" />
      <path
         d="m -1003.4698,452.03348 c -15.5809,0 -28.2196,12.6387 -28.2196,28.22579 0,15.58083 12.6387,28.21639 28.2196,28.21639 15.58396,0 28.22579,-12.63556 28.22579,-28.21639 0,-15.58709 -12.64183,-28.22579 -28.22579,-28.22579 m 0,16.56677 c -6.4352,0 -11.6559,5.22073 -11.6559,11.65589 0,6.43515 5.2207,11.65588 11.6559,11.65588 6.43829,0 11.65901,-5.22073 11.65901,-11.65588 0,-6.43516 -5.22072,-11.65589 -11.65901,-11.65589 m 0,-18.51986 c 16.66379,0 30.17886,13.51196 30.17886,30.17888 0,16.66066 -13.51507,30.1726 -30.17886,30.1726 -16.6607,0 -30.1727,-13.51508 -30.1727,-30.1726 0,-16.66379 13.512,-30.17888 30.1727,-30.17888 m 0,20.47295 c -0.081,0 -0.1659,0 -0.2473,0.003 v 0 l -0.2473,0.0101 c -5.1236,0.25977 -9.2051,4.49771 -9.2051,9.69028 0,5.18944 4.0815,9.4305 9.2051,9.69028 l 0.2473,0.0101 v 0 c 0.081,0 0.1659,0.003 0.2473,0.003 v 0 c 0.084,0 0.169,-0.003 0.2504,-0.003 v 0 l 0.2473,-0.0101 c 5.12373,-0.25978 9.20516,-4.50084 9.20516,-9.69028 0,-5.19257 -4.0783,-9.43051 -9.20516,-9.69028 l -0.2473,-0.0101 v 0 c -0.081,-0.003 -0.1659,-0.003 -0.2504,-0.003 z"
         style="fill:#35b357;fill-opacity:1;fill-rule:evenodd;stroke:none;stroke-width:3.12993"
         id="path171" />
      <path
         d="m -737.07357,469.49573 c -0.15963,0.20344 -0.31925,0.28171 -0.57279,0.33491 -1.03913,0.23161 -2.90145,0.69171 -3.94998,0.70737 h -3.56812 v -3.74655 h 3.88424 c 0.84823,0 3.41164,0.0876 4.15345,0.57592 0.3161,0.28169 0.33802,0.83255 0.33802,1.22067 0,0.34742 -0.069,0.62598 -0.28482,0.90768 m 22.35402,21.26793 c -0.78561,-1.52115 -1.93744,-3.03605 -3.00788,-4.36313 -0.49453,-0.61034 -1.04539,-1.28955 -1.63383,-1.93118 2.66045,-1.74651 4.85141,-4.01571 6.47271,-6.77945 1.88735,-3.2207 2.65106,-6.84516 2.65106,-10.55727 0,-4.26924 -1.01095,-8.37572 -3.47109,-11.90628 -2.32242,-3.324 -5.45862,-5.67772 -9.32095,-6.92656 -4.25359,-1.38969 -9.49624,-1.65573 -13.97205,-1.66512 h -34.71414 v 67.24045 h 26.55126 v -22.86106 c 0.60095,0.77935 1.33021,2.09704 1.63384,2.66044 l 10.90469,20.20062 h 29.82205 z"
         style="fill:#ffffff;fill-opacity:1;fill-rule:evenodd;stroke:none;stroke-width:3.12993"
         id="path175" />
      <path
         d="m -744.96566,470.33925 h 3.36781 c 0.86073,-0.0157 2.30676,-0.33804 3.36467,-0.58218 l 0.54461,-0.11896 c 0.23162,-0.05 0.34117,-0.11273 0.46011,-0.26605 0.16902,-0.22222 0.24101,-0.4507 0.24101,-0.78561 0,-0.26917 0,-0.82943 -0.26918,-1.07043 -0.5853,-0.37873 -2.72931,-0.52584 -4.02198,-0.52584 h -3.68705 z m -0.19719,0.3975 h -0.20032 v -4.14405 h 4.08456 c 0.13769,0 3.3459,0.007 4.26298,0.60722 0.42568,0.37872 0.42568,1.06104 0.42568,1.38656 0,0.42567 -0.097,0.73555 -0.32551,1.02975 -0.20032,0.26292 -0.41316,0.35055 -0.68859,0.41002 l -0.54148,0.12202 c -1.07358,0.24414 -2.54465,0.57279 -3.4492,0.58845 z m 12.65435,42.93961 h 29.3776 l -11.76858,-22.82037 c -0.79188,-1.54305 -1.95309,-3.05169 -2.98283,-4.3287 -0.50394,-0.62287 -1.04855,-1.28954 -1.62445,-1.92178 l -0.15963,-0.17217 0.19719,-0.12825 c 2.66671,-1.75276 4.82324,-4.01256 6.40699,-6.71683 1.74338,-2.97345 2.62603,-6.4915 2.62603,-10.454 0,-4.55407 -1.15808,-8.51969 -3.43668,-11.7936 -2.31616,-3.31774 -5.41793,-5.62138 -9.21767,-6.85144 -4.50086,-1.46795 -10.09404,-1.64634 -13.90944,-1.65261 h -34.51697 v 66.83983 h 26.15377 v -23.24605 l 0.35682,0.4601 c 0.5853,0.76371 1.28328,2.01255 1.64947,2.68861 z m 30.03174,0.39751 h -30.26649 l -0.0563,-0.10649 -10.90786,-20.20063 c -0.28481,-0.53209 -0.78247,-1.42098 -1.25822,-2.13148 v 22.43853 h -26.94882 v -67.63789 h 34.91447 c 3.84044,0.0101 9.47745,0.19092 14.03152,1.67139 3.88736,1.26136 7.05486,3.61819 9.4211,7.00479 2.32867,3.33965 3.50867,7.38665 3.50867,12.0221 0,4.03762 -0.90143,7.6214 -2.67922,10.65743 -1.5775,2.68861 -3.71212,4.94843 -6.34126,6.71685 0.52581,0.58843 1.02348,1.19564 1.48671,1.76841 1.04226,1.29267 2.21913,2.82322 3.02978,4.39443 z"
         style="fill:#050606;fill-opacity:1;fill-rule:nonzero;stroke:none;stroke-width:3.12993"
         id="path179" />
      <path
         d="m -735.44128,470.75178 c -0.45697,0.59154 -1.03288,0.93583 -1.76528,1.09859 -0.96402,0.20345 -1.93431,0.40689 -2.90458,0.56965 -0.45384,0.0782 -1.02349,0.17527 -1.48673,0.17527 h -5.62762 v -7.86865 h 5.94687 c 1.36154,0 4.36001,0.11578 5.46802,1.05165 0.84822,0.7199 1.08608,1.73398 1.08608,2.8107 0,0.80438 -0.22223,1.51802 -0.71676,2.16279 m 19.18026,20.80156 c -0.71049,-1.37405 -1.77154,-2.76688 -2.81694,-4.06579 -0.79501,-0.99219 -1.72771,-2.11898 -2.74182,-3.00788 l -0.40376,-0.35994 0.47575,-0.25039 c 0.2723,-0.14085 0.53522,-0.28483 0.78248,-0.43508 2.77626,-1.67762 4.98911,-3.90615 6.58227,-6.61981 1.60251,-2.7387 2.41317,-5.99382 2.41317,-9.68089 0,-4.23482 -1.06418,-7.90622 -3.16438,-10.9141 -2.11583,-3.02978 -4.95154,-5.14249 -8.43203,-6.2724 -4.33811,-1.41159 -9.86245,-1.57435 -13.64339,-1.57435 h -32.7736 v 63.76622 h 23.08642 v -23.91272 l 0.44133,0.0939 c 0.68859,0.14396 1.31144,0.41314 1.86857,0.80438 0.4288,0.30674 1.2238,1.20191 2.57906,3.72777 l 10.41958,19.28667 h 25.94091 z"
         style="fill:#141415;fill-opacity:1;fill-rule:nonzero;stroke:none;stroke-width:3.12993"
         id="path183" />
      <path
         d="m -748.41646,473.78717 h 6.82326 c 0.69797,0 2.216,-0.25352 4.63857,-0.77622 1.03287,-0.22222 1.83728,-0.72302 2.45388,-1.53054 0.64163,-0.82943 0.96403,-1.79971 0.96403,-2.89206 0,-1.64321 -0.49141,-2.85763 -1.50864,-3.71837 -0.71676,-0.60721 -2.37875,-1.33022 -6.23486,-1.33022 h -7.13624 z m 6.82326,1.74339 h -8.56351 v -13.73417 h 8.87649 c 3.56815,0 5.97507,0.57278 7.36164,1.74651 1.40847,1.1925 2.12522,2.88892 2.12522,5.04545 0,1.48359 -0.44758,2.81382 -1.32396,3.9531 -0.87013,1.12992 -2.0376,1.8592 -3.4711,2.17219 -2.61351,0.56652 -4.15657,0.81692 -5.00478,0.81692 m 11.94698,33.34949 h 18.65443 l -8.16288,-15.83123 c -0.30986,-0.59155 -0.98593,-1.68704 -2.46013,-3.52119 -1.58061,-1.96246 -2.39754,-2.67609 -2.74495,-2.92961 -0.92961,-0.67607 -2.45388,-1.36778 -4.51963,-2.0595 l -2.96093,-0.99532 3.04856,-0.68546 c 2.60411,-0.57903 4.66987,-1.32395 6.13781,-2.21599 2.3099,-1.39283 4.14404,-3.23636 5.45861,-5.47427 1.30831,-2.23166 1.96872,-4.9359 1.96872,-8.03454 0,-3.55249 -0.87012,-6.59479 -2.57906,-9.05178 -1.70268,-2.43509 -3.97815,-4.13152 -6.76693,-5.03608 -2.8858,-0.93898 -7.13624,-1.41473 -12.63867,-1.41473 h -29.5122 v 57.2497 h 16.56676 v -23.9409 h 2.47579 c 1.86545,0 3.5337,0.51331 4.96722,1.51802 1.05477,0.74179 2.18781,2.28172 3.57438,4.84515 z m 21.50893,1.74337 h -22.54807 l -9.98451,-18.4948 c -1.23633,-2.28172 -2.23164,-3.67142 -3.04541,-4.24734 -1.12991,-0.79499 -2.4664,-1.19875 -3.96564,-1.19875 h -0.73554 v 23.94089 h -20.04725 v -60.73646 h 31.25244 c 5.68396,0 10.11595,0.50394 13.18016,1.50238 3.15498,1.02662 5.7309,2.94214 7.65269,5.69962 1.92179,2.74809 2.89207,6.12842 2.89207,10.04398 0,3.41476 -0.7418,6.41324 -2.20974,8.91406 -1.46168,2.49456 -3.49615,4.54153 -6.05016,6.08771 -1.07983,0.65104 -2.42257,1.22694 -4.01572,1.7246 0.99845,0.43507 1.79972,0.8764 2.42571,1.33024 0.73866,0.53834 1.77467,1.63382 3.07672,3.24886 1.24258,1.53993 2.15966,2.86079 2.65107,3.81229 z"
         style="fill:#35b357;fill-opacity:1;fill-rule:nonzero;stroke:none;stroke-width:3.12993"
         id="path187" />
      <path
         d="m -866.55346,488.16831 c -2.49143,0 -4.81386,-1.14869 -6.32874,-3.12369 l -1.26449,-1.64008 h -52.42647 l -1.26135,1.64008 c -1.51489,1.975 -3.8373,3.12369 -6.32875,3.12369 -4.40382,0 -7.97194,-3.57127 -7.97194,-7.97508 0,-4.4007 3.56812,-7.97509 7.97194,-7.97509 2.49145,0 4.81386,1.1487 6.32875,3.12368 l 1.26135,1.64635 h 26.37914 26.04733 l 1.26449,-1.64322 c 1.51488,-1.97811 3.83417,-3.12681 6.32874,-3.12681 4.40067,0 7.97194,3.57439 7.97194,7.97509 0,4.40381 -3.57127,7.97508 -7.97194,7.97508 m 2.6041,-41.55618 c 0.0101,-0.29734 0.0125,-0.59469 0.0125,-0.89517 0,-19.29606 -15.92825,-34.93636 -35.57801,-34.93636 -19.64974,0 -35.578,15.6403 -35.578,34.93636 0,0.26917 0.003,0.53836 0.0101,0.80753 -18.17242,0.4914 -32.76106,15.37739 -32.76106,33.66874 0,18.60121 15.08319,33.6844 33.68126,33.6844 15.33045,0 28.76413,-10.37888 32.61082,-25.22104 l 1.19252,-4.60729 1.19561,4.60729 c 3.84671,14.84216 17.2804,25.22104 32.60771,25.22104 18.59809,0 33.68752,-15.08319 33.68752,-33.6844 0,-17.71859 -13.6966,-32.25088 -31.08028,-33.5811"
         style="fill:#ffffff;fill-opacity:1;fill-rule:evenodd;stroke:none;stroke-width:3.12993"
         id="path191" />
      <path
         d="m -926.67018,483.20736 h 52.62051 l 1.32083,1.71833 c 1.48985,1.93744 3.74028,3.04857 6.17538,3.04857 4.28801,0 7.77789,-3.48989 7.77789,-7.78103 0,-4.28801 -3.48988,-7.7779 -7.77789,-7.7779 -2.4351,0 -4.68866,1.11113 -6.1785,3.04857 l -1.31771,1.71833 h -52.62051 l -1.31771,-1.72146 c -1.48671,-1.93431 -3.74027,-3.04544 -6.17537,-3.04544 -4.28802,0 -7.77788,3.48989 -7.77788,7.7779 0,4.29114 3.48986,7.78103 7.77788,7.78103 2.4351,0 4.68553,-1.11113 6.17224,-3.04857 z m 26.39789,0.39123 1.29892,5.01104 c 3.82167,14.7608 17.15207,25.07393 32.41678,25.07393 18.46663,0 33.49034,-15.0237 33.49034,-33.49033 0,-17.39308 -13.57142,-32.05682 -30.89875,-33.38705 l -0.18154,-0.0125 0.003,-0.18467 c 0.007,-0.29735 0.0101,-0.59469 0.0101,-0.89204 0,-19.1552 -15.87192,-34.73918 -35.38082,-34.73918 -19.51202,0 -35.38396,15.58398 -35.38396,34.73918 0,0.26918 0.007,0.53522 0.0124,0.80439 l 0.003,0.19406 -0.19405,0.007 c -18.26631,0.49141 -32.57326,15.19273 -32.57326,33.47156 0,18.46663 15.0237,33.49033 33.4872,33.49033 15.26471,0 28.59825,-10.31314 32.4199,-25.07393 l 1.29892,-5.01104 h -26.0317 l -1.20503,1.56498 c -1.56182,2.03446 -3.92493,3.19878 -6.48209,3.19878 -4.50398,0 -8.16914,-3.66202 -8.16914,-8.16912 0,-4.50399 3.66516,-8.16914 8.16914,-8.16914 2.55716,0 4.92027,1.16747 6.48523,3.1988 l 1.20189,1.56809 h 52.23241 l 1.20502,-1.56497 c 1.56184,-2.03445 3.92808,-3.20192 6.48524,-3.20192 4.50397,0 8.16601,3.66515 8.16601,8.16914 0,4.5071 -3.66204,8.16912 -8.16601,8.16912 -2.55716,0 -4.92028,-1.16432 -6.48524,-3.19878 l -1.20189,-1.56498 z m 33.7157,30.4731 c -15.44313,0 -28.92689,-10.42896 -32.79549,-25.36503 l -1.00784,-3.87799 -1.00472,3.87799 c -3.8686,14.93607 -17.3555,25.36503 -32.79862,25.36503 -18.67946,0 -33.87845,-15.19585 -33.87845,-33.87846 0,-8.88591 3.41791,-17.28039 9.62143,-23.64667 6.15034,-6.30058 14.36017,-9.92192 23.13964,-10.20987 -0.007,-0.20657 -0.007,-0.41003 -0.007,-0.61972 0,-19.37119 16.0472,-35.13043 35.77207,-35.13043 19.72799,0 35.77205,15.75924 35.77205,35.13043 0,0.241 -0.003,0.47888 -0.003,0.71676 8.41326,0.69171 16.21933,4.48205 21.99719,10.69186 5.84985,6.2849 9.07369,14.47909 9.07369,23.06764 0,18.68261 -15.19898,33.87846 -33.88158,33.87846"
         style="fill:#050606;fill-opacity:1;fill-rule:nonzero;stroke:none;stroke-width:3.12993"
         id="path195" />
      <path
         d="m -933.47405,446.51323 c -0.0594,-7.28338 1.84667,-13.45874 5.40541,-18.84537 6.07521,-9.20826 16.75143,-15.22399 28.45427,-15.22399 9.74349,0 18.8923,4.14401 25.08645,10.82956 5.70588,6.07834 8.77948,13.5057 9.02987,23.2398 -0.16902,-0.003 -0.33803,-0.007 -0.50704,-0.007 -2.18472,0 -4.32558,0.20969 -6.41014,0.6072 -14.62931,2.57593 -26.15687,15.00491 -27.8001,29.85647 -0.29107,-1.75277 -0.63537,-3.5118 -1.09547,-5.26456 -2.95155,-11.33976 -11.54947,-20.07855 -22.33524,-23.54964 -3.12056,-1.01098 -6.42575,-1.57749 -9.82801,-1.64322 m 35.59052,16.63874 c 0,-0.11578 0.003,-0.22848 0.007,-0.30985 0.0751,-3.33339 -0.14084,-5.46175 -0.59782,-8.87965 5.66206,-2.34431 11.83117,-8.26616 11.83117,-8.26616 0.18466,0.0627 0.36932,0.11897 0.55399,0.18467 1.70581,0.56652 3.31773,1.19876 4.914,1.87484 -4.33496,1.94681 -8.20982,4.72619 -11.41802,8.13469 -2.05637,2.18157 -3.83728,4.61979 -5.28958,7.26146 m 18.066,-15.97207 c -2.08454,-0.90767 -4.27863,-1.7778 -6.47897,-2.43508 l -0.0563,-0.0187 c -1.2113,-4.59162 -2.41006,-8.05958 -5.32404,-12.69503 0.6792,-1.18937 1.50238,-2.42883 2.43196,-3.63698 1.07671,-1.39282 2.29739,-2.73556 3.61821,-3.878 3.89052,0.42568 7.84362,1.97813 10.64805,3.78096 0.92021,1.42412 1.64947,2.80757 2.23163,4.18473 1.22381,2.87956 1.84041,5.73717 2.37877,8.89529 -0.20344,0.29734 -0.41314,0.58842 -0.61347,0.87326 -0.75744,1.0579 -1.5274,2.05948 -2.33494,3.02352 -2.25042,0.43193 -4.42258,1.07356 -6.50087,1.90612 m 12.10661,-4.14717 c -0.50394,-0.50079 -1.07671,-0.98592 -1.86234,-1.60253 -0.723,-4.6949 -1.93741,-8.52594 -3.65576,-11.62773 -0.34428,-0.62285 -0.71048,-1.21753 -1.09546,-1.78092 0.0157,-0.44757 0.0376,-1.01096 0.072,-1.41472 1.85605,2.32552 3.33964,4.8514 4.43825,7.63079 1.05479,2.67922 1.75901,5.59318 2.10332,8.79511 m -23.93776,-27.62482 -1.66827,1.07044 c 0,0 -3.22696,-0.50079 -6.60417,-0.62911 -2.53837,-0.097 -5.45547,0.39436 -6.58225,0.61344 -0.36308,0.072 -0.54148,0.11578 -0.46011,0.10331 -0.4288,-0.25353 -0.96088,-0.65415 -1.43037,-0.92332 2.80755,-0.79501 5.75595,-1.22068 8.77947,-1.22068 2.72618,0 5.40227,0.34117 7.9657,0.98593 m -33.77831,11.94384 c 0.13146,0.32863 0.32553,0.76683 0.46949,1.06104 -0.75743,1.11739 -1.47732,2.52274 -2.10017,4.06892 -1.10801,2.75436 -1.89988,5.95315 -2.00003,8.71688 -0.78875,0.85449 -1.57122,1.71208 -2.35686,2.56342 0.15964,-2.41005 0.56341,-4.68553 1.18939,-6.83578 0.85447,-2.92023 2.14087,-5.63389 3.81539,-8.1754 0.31611,-0.47575 0.64163,-0.94212 0.98279,-1.39908 m 1.36466,18.61062 c -0.22535,-0.2285 -0.45696,-0.46325 -0.68858,-0.70425 -1.42413,-1.48984 -2.8639,-3.15498 -3.57126,-4.10335 0.0157,-2.5102 0.71675,-5.09552 1.52428,-7.2458 1.11739,-2.97658 2.43822,-5.12371 2.43822,-5.12371 0.4288,-0.38498 1.00783,-0.77622 1.69016,-1.15494 2.529,-1.40848 6.45393,-2.67611 9.13629,-2.80442 0.82317,0.49453 2.00004,1.6307 3.16437,2.96404 0.0251,0.0251 0.0438,0.047 0.072,0.0782 0.12202,0.14085 0.24727,0.28795 0.36933,0.43507 l 0.007,0.022 c 1.1925,1.46481 2.5509,3.33026 3.12993,4.48833 -0.5133,1.55871 -1.01409,3.14247 -1.47419,4.69492 l -0.18466,0.62909 v -0.003 c -0.69798,2.38815 -1.28329,4.67613 -1.67139,6.65737 -2.76688,1.31772 -5.86551,2.24419 -8.9172,2.96094 l -0.11897,0.0281 c -1.25822,-0.56964 -2.5509,-1.07358 -3.87486,-1.4961 v -0.003 c -0.34116,-0.10955 -0.68233,-0.2191 -1.02975,-0.31926 m 6.36629,2.52586 c 2.8013,-0.70737 5.93436,-1.7559 7.95944,-2.73245 1.09861,1.40222 2.31302,2.69489 3.65889,3.88738 1.85605,1.64322 3.95938,3.08613 6.34439,4.35376 0.069,0.0344 0.13464,0.069 0.20032,0.1033 0,0 0.18467,1.38031 0.33801,2.8639 0.0908,0.90767 0.17217,1.85292 0.19094,2.5415 0.05,1.7997 0,4.21289 0,4.21289 -0.82317,0.49141 -1.73399,0.96402 -2.6041,1.36153 -1.62758,-3.47111 -3.79037,-6.61042 -6.36943,-9.33035 -2.79817,-2.94528 -6.08773,-5.4054 -9.71846,-7.26144 m 7.47117,-21.84384 c -0.85449,-0.92021 -1.79034,-1.78407 -2.76061,-2.42258 0.3349,-0.9515 0.97341,-2.02819 1.76841,-3.06108 1.28329,-1.662 2.97031,-3.23011 4.42261,-4.02823 0.13144,-0.0314 0.26291,-0.0626 0.39437,-0.0939 4.1096,-0.90457 9.04553,-0.6479 13.32727,0.19718 0.59782,0.30986 1.31458,0.78248 2.06262,1.38344 1.69644,1.35526 3.55249,3.3459 4.55095,5.52433 -1.04227,1.08297 -2.02821,2.10334 -2.97346,3.22697 -1.0047,1.19877 -1.96872,2.51647 -2.90456,4.15657 -2.75436,-0.33179 -7.46491,-0.0376 -11.36482,0.45383 -0.8357,0.10954 -1.63382,0.22536 -2.36935,0.34117 0,0 -1.74651,-3.07987 -4.15343,-5.6777 m 2.27234,62.69264 h -15.73108 c -2.63227,3.01727 -6.43514,4.76378 -10.47904,4.76378 -7.67772,0 -13.90631,-6.22547 -13.90631,-13.90632 0,-7.67775 6.22859,-13.90944 13.90631,-13.90944 4.0439,0 7.84677,1.74963 10.47904,4.77002 h 15.72978 c -3.84359,-11.04869 -14.332,-18.61062 -26.21012,-18.61062 -15.32418,0 -27.75002,12.42586 -27.75002,27.75004 0,15.32417 12.42584,27.75315 27.75002,27.75315 11.87812,0 22.36653,-7.56193 26.21012,-18.61061 m 15.18644,-18.28196 h 15.73108 c 2.6354,-3.02039 6.43514,-4.77002 10.48216,-4.77002 7.67773,0 13.90319,6.23169 13.90319,13.90944 0,7.68085 -6.22546,13.90632 -13.90319,13.90632 -4.04702,0 -7.84676,-1.74651 -10.48216,-4.76378 h -15.73139 c 3.84357,11.04556 14.33199,18.61061 26.2101,18.61061 15.32417,0 27.75317,-12.42898 27.75317,-27.75315 0,-15.32418 -12.429,-27.75004 -27.75317,-27.75004 -11.87811,0 -22.36653,7.56193 -26.2101,18.61062 m -41.39656,-22.81412 c 14.55735,0 27.29305,9.85932 30.93317,23.92212 l 0.80127,3.09237 h -23.28987 l -0.74492,-0.96716 c -1.84355,-2.39752 -4.66673,-3.79973 -7.69965,-3.79973 -5.35845,0 -9.70593,4.34748 -9.70593,9.70594 0,5.36159 4.34748,9.70594 9.70593,9.70594 3.03292,0 5.8561,-1.40221 7.69965,-3.80288 l 0.74179,-0.96402 h 23.293 l -0.80127,3.09237 c -3.64012,14.06281 -16.37582,23.92212 -30.93317,23.92212 -17.64346,0 -31.95354,-14.31007 -31.95354,-31.95353 0,-17.64347 14.31008,-31.95354 31.95354,-31.95354 m -29.48088,31.95354 c 0,16.2788 13.20206,29.48401 29.48088,29.48401 13.72165,0 25.25234,-9.37728 28.54191,-22.07232 h -18.88292 c -2.22539,2.89833 -5.72152,4.76377 -9.65899,4.76377 -6.7231,0 -12.17545,-5.45236 -12.17545,-12.17546 0,-6.72311 5.45235,-12.1786 12.17545,-12.1786 3.93747,0 7.43673,1.87172 9.66212,4.77003 h 18.87979 c -3.28957,-12.69503 -14.82026,-22.07232 -28.54191,-22.07232 -16.27882,0 -29.48088,13.2052 -29.48088,29.48089 m 68.54877,-7.40857 h 18.87665 c 2.22852,-2.89831 5.72778,-4.77003 9.66526,-4.77003 6.71996,0 12.17545,5.45549 12.17545,12.1786 0,6.7231 -5.45549,12.17546 -12.17545,12.17546 -3.93748,0 -7.43674,-1.86544 -9.66211,-4.76377 h -18.8798 c 3.28642,12.69504 14.82025,22.07232 28.53877,22.07232 16.28193,0 29.48401,-13.20521 29.48401,-29.48401 0,-16.27569 -13.20208,-29.48089 -29.48401,-29.48089 -13.71852,0 -25.25235,9.37729 -28.53877,22.07232 m 28.53877,-24.54497 c 17.64658,0 31.95667,14.31007 31.95667,31.95354 0,17.64346 -14.31009,31.95353 -31.95667,31.95353 -14.55733,0 -27.28993,-9.85931 -30.93318,-23.92212 l -0.80126,-3.09237 h 23.29301 l 0.74178,0.96402 c 1.84354,2.40067 4.66987,3.80288 7.70279,3.80288 5.35844,0 9.70279,-4.34435 9.70279,-9.70594 0,-5.35846 -4.34435,-9.70594 -9.70279,-9.70594 -3.03292,0 -5.85925,1.40221 -7.70279,3.80287 l -0.74178,0.96402 h -23.29301 l 0.80126,-3.09237 c 3.64325,-14.0628 16.37585,-23.92212 30.93318,-23.92212"
         style="fill:#141415;fill-opacity:1;fill-rule:evenodd;stroke:none;stroke-width:3.12993"
         id="path199" />
      <path
         d="m -907.95159,489.33578 h -15.73108 c -2.63541,3.02039 -6.43514,4.76377 -10.48215,4.76377 -7.67774,0 -13.9032,-6.22545 -13.9032,-13.9063 0,-7.67775 6.22546,-13.90632 13.9032,-13.90632 4.04701,0 7.84674,1.7465 10.48215,4.7669 h 15.73108 c -3.8467,-11.04869 -14.332,-18.61062 -26.2101,-18.61062 -15.32419,0 -27.75003,12.42898 -27.75003,27.75004 0,15.3273 12.42584,27.75315 27.75003,27.75315 11.8781,0 22.3634,-7.56193 26.2101,-18.61062 m 15.18645,-18.28195 h 15.73107 c 2.63541,-3.0204 6.43515,-4.7669 10.48217,-4.7669 7.67772,0 13.90318,6.22857 13.90318,13.90632 0,7.68085 -6.22546,13.9063 -13.90318,13.9063 -4.04702,0 -7.84676,-1.74338 -10.48217,-4.76377 h -15.73107 c 3.84357,11.04555 14.33199,18.61062 26.21011,18.61062 15.32417,0 27.75315,-12.42585 27.75315,-27.75315 0,-15.32106 -12.42898,-27.75004 -27.75315,-27.75004 -11.87812,0 -22.36654,7.56193 -26.21011,18.61062 m -70.87743,9.13942 c 0,16.27879 13.20206,29.48401 29.48088,29.48401 13.71851,0 25.25233,-9.3773 28.54189,-22.07234 h -18.88291 c -2.22539,2.89833 -5.72465,4.7669 -9.66211,4.7669 -6.71997,0 -12.17546,-5.45235 -12.17546,-12.17857 0,-6.72 5.45549,-12.1786 12.17546,-12.1786 3.93746,0 7.43672,1.87171 9.66211,4.77003 h 18.88291 c -3.28956,-12.69504 -14.82338,-22.07234 -28.54189,-22.07234 -16.27882,0 -29.48088,13.20522 -29.48088,29.48091 m 68.54562,-7.40857 h 18.8798 c 2.22851,-2.89832 5.72778,-4.77003 9.66525,-4.77003 6.71998,0 12.17232,5.4586 12.17232,12.1786 0,6.72622 -5.45234,12.17857 -12.17232,12.17857 -3.93747,0 -7.43674,-1.86857 -9.66211,-4.7669 h -18.88294 c 3.28645,12.69504 14.8234,22.07234 28.54192,22.07234 16.28192,0 29.484,-13.20522 29.484,-29.48401 0,-16.27569 -13.20208,-29.48091 -29.484,-29.48091 -13.71852,0 -25.25547,9.3773 -28.54192,22.07234"
         style="fill:#35b357;fill-opacity:1;fill-rule:evenodd;stroke:none;stroke-width:3.12993"
         id="path203" />
      <path
         d="m -1064.7144,493.97872 c -0.7982,0.68233 -2.2662,0.8044 -3.2583,0.8044 -1.878,0 -3.5275,-0.43507 -4.7169,-1.95308 -0.7636,-0.9828 -1.1549,-2.58533 -1.3584,-3.88426 0.6823,0.16902 1.3584,0.32865 2.0156,0.47575 l 0.021,0.007 c 1.4336,0.313 6.238,1.44916 7.3367,2.4163 0.291,0.25979 0.629,0.60409 0.629,1.0235 0,0.46947 -0.3349,0.81378 -0.6698,1.11111 m -5.4303,-28.84238 c 1.0642,0 2.5071,0.14085 3.3678,0.84822 0.241,0.19719 0.4475,0.46635 0.6197,0.76996 -0.7199,-0.16276 -1.4241,-0.31613 -2.1096,-0.46323 l -0.025,-0.007 c -0.7449,-0.15337 -2.5196,-0.53836 -3.5963,-0.94839 0.5352,-0.16275 1.4054,-0.2003 1.7434,-0.2003 m 28.3665,14.77644 c -1.8216,-3.03918 -4.6885,-5.60261 -8.5227,-7.61828 l -1.2457,-0.65415 11.1644,-0.65103 -0.4789,-3.87486 c -0.8701,-7.04862 -3.7151,-12.3257 -8.4507,-15.68098 -4.5634,-3.2301 -10.7983,-4.80132 -19.0644,-4.80132 -6.6011,0 -11.7404,0.84508 -15.7124,2.57279 -4.119,1.80911 -7.2771,4.36939 -9.3867,7.59949 -2.1158,3.23637 -3.1863,6.75128 -3.1863,10.45087 0,5.61197 2.1252,10.30374 6.3163,13.94388 1.5806,1.38341 3.5837,2.66043 5.9437,3.78722 l 1.3584,0.6479 -16.0973,1.00784 0.3193,3.72775 c 0.5727,6.71371 3.0987,12.35074 7.5118,16.74516 4.5354,4.55093 12.0754,6.76068 23.0552,6.76068 6.1879,0 11.2333,-0.89517 15.4212,-2.73557 4.3475,-1.90301 7.7842,-4.75752 10.2161,-8.48839 2.4476,-3.73402 3.687,-7.85929 3.687,-12.26623 0,-3.81853 -0.9577,-7.34285 -2.8483,-10.47277"
         style="fill:#ffffff;fill-opacity:1;fill-rule:evenodd;stroke:none;stroke-width:3.12993"
         id="path207" />
      <path
         d="m -1071.1196,465.38768 c 0.7199,0.22224 1.6808,0.45698 2.867,0.70737 0.5541,0.11897 1.108,0.241 1.662,0.36308 -0.097,-0.12521 -0.2034,-0.23162 -0.3099,-0.3224 -0.6384,-0.52581 -1.7621,-0.80439 -3.2425,-0.80439 -0.2192,0 -0.5979,0.0125 -0.9766,0.0563 m 5.3491,1.65261 -0.4288,-0.0939 c -0.7199,-0.16276 -1.4242,-0.31926 -2.1096,-0.46323 -1.6683,-0.35056 -2.8858,-0.67294 -3.6495,-0.96715 l -0.529,-0.20346 0.5447,-0.16588 c 0.6729,-0.20345 1.7527,-0.20657 1.7997,-0.20657 1.5931,0 2.77,0.30047 3.4898,0.89515 0.2473,0.20032 0.4695,0.47888 0.6667,0.82318 z m -8.0378,22.16622 c 0.2755,1.57123 0.7137,2.78252 1.274,3.50241 1.0172,1.2989 2.4226,1.87795 4.5634,1.87795 1.0236,0 2.3944,-0.13144 3.1268,-0.75745 0.3631,-0.31612 0.6042,-0.60094 0.6042,-0.96401 0,-0.32551 -0.2724,-0.61347 -0.5634,-0.87638 -0.9359,-0.82317 -4.9954,-1.87796 -7.2459,-2.3725 -0.5885,-0.13146 -1.1705,-0.26604 -1.7591,-0.41002 m 5.8374,5.7716 c -2.241,0 -3.7904,-0.64477 -4.8701,-2.02507 -0.648,-0.83257 -1.1174,-2.17216 -1.4023,-3.97814 l -0.043,-0.29109 0.2847,0.072 c 0.6824,0.17217 1.3554,0.32551 2.0158,0.47576 1.0485,0.22849 6.2411,1.40534 7.443,2.46327 0.3443,0.31299 0.6948,0.69171 0.6948,1.1706 0,0.53834 -0.3568,0.92332 -0.7387,1.26135 v 0 c -0.8231,0.70111 -2.2942,0.85135 -3.3834,0.85135 m -30.9551,-8.15349 0.3004,3.53059 c 0.5697,6.66675 3.0768,12.25995 7.4524,16.62308 4.4977,4.51025 11.994,6.70434 22.9175,6.70434 6.1628,0 11.1802,-0.88892 15.346,-2.71992 4.31,-1.88736 7.7185,-4.71996 10.1284,-8.4164 2.4258,-3.70274 3.6559,-7.79356 3.6559,-12.16294 0,-3.78098 -0.9484,-7.27086 -2.8201,-10.36949 -1.8029,-3.00787 -4.6479,-5.54939 -8.4445,-7.54316 l -1.8718,-0.98594 11.659,-0.67917 -0.4539,-3.66517 c -0.8607,-6.99228 -3.6776,-12.22241 -8.3693,-15.54328 -4.529,-3.21131 -10.7295,-4.77001 -18.9517,-4.77001 -6.573,0 -11.6873,0.83883 -15.6342,2.55714 -4.0814,1.79659 -7.2113,4.32871 -9.299,7.52752 -2.094,3.20505 -3.155,6.68554 -3.155,10.34444 0,5.55251 2.1002,10.19421 6.2474,13.79364 1.5713,1.37404 3.5556,2.64166 5.9,3.75905 l 2.0406,0.97341 z m 30.6703,27.24924 c -11.033,0 -18.6201,-2.22851 -23.1929,-6.82014 -4.4445,-4.42886 -6.9923,-10.10656 -7.5682,-16.86722 l -0.3349,-3.92808 15.5432,-0.9734 -0.6791,-0.32552 c -2.3756,-1.13305 -4.3913,-2.41632 -5.9876,-3.81227 -4.2348,-3.67767 -6.3819,-8.42267 -6.3819,-14.09098 0,-3.73716 1.0829,-7.2865 3.2175,-10.55728 2.1316,-3.26453 5.3178,-5.84673 9.4712,-7.67461 3.997,-1.74024 9.1646,-2.58846 15.7907,-2.58846 8.3068,0 14.5823,1.58375 19.177,4.83888 4.7857,3.38973 7.6557,8.71063 8.5322,15.81872 l 0.507,4.08143 -10.673,0.61972 0.626,0.32551 c 3.8624,2.03447 6.7574,4.61981 8.5978,7.69027 1.9093,3.16122 2.8764,6.71997 2.8764,10.57294 0,4.4445 -1.252,8.61044 -3.7184,12.37578 -2.4537,3.76531 -5.9186,6.64485 -10.3004,8.56036 -4.2161,1.85606 -9.2865,2.75435 -15.5026,2.75435"
         style="fill:#050606;fill-opacity:1;fill-rule:nonzero;stroke:none;stroke-width:3.12993"
         id="path211" />
      <path
         d="m -1073.8797,465.57704 c 0,-0.35682 0.1003,-0.68233 0.5854,-1.0861 0.3099,-0.26292 0.9734,-0.58843 2.5353,-0.6792 l 0.2316,-0.0101 0.2503,-0.003 0.2505,0.003 0.2442,0.007 0.2973,0.0101 c 1.5774,0.0939 2.7981,0.48514 3.6307,1.17059 0.8357,0.68234 1.4429,1.86859 1.8122,3.52432 -1.4867,-0.35994 -2.9765,-0.69485 -4.4664,-1.01722 -2.8045,-0.58218 -4.6386,-1.21755 -5.058,-1.59629 -0.2504,-0.2191 -0.3068,-0.32238 -0.3131,-0.32238 m 30.7047,15.1802 c -1.9248,-3.20819 -4.917,-5.50244 -8.2097,-7.18321 -2.2191,-1.13304 -4.6949,-1.98751 -7.0705,-2.71365 -0.4257,-0.13145 -0.8545,-0.25666 -1.2801,-0.37873 l 17.5181,-1.02349 -0.266,-2.14087 c -0.7136,-5.77161 -2.9139,-11.10501 -7.7747,-14.54795 -5.0987,-3.61196 -12.0253,-4.50085 -18.1192,-4.50085 -4.8953,0 -10.5229,0.45696 -15.0614,2.43508 -3.4929,1.53679 -6.5634,3.76846 -8.6699,6.99229 -1.8905,2.89832 -2.9202,6.09712 -2.9202,9.55883 0,5.08301 1.9124,9.3773 5.756,12.71381 4.5634,3.99379 11.8781,6.16911 17.6872,7.47741 1.9281,0.42254 6.7764,1.55246 8.2662,2.89207 0.7606,0.68233 1.299,1.48359 1.299,2.52899 0,1.10173 -0.5571,1.93117 -1.371,2.64166 -1.2175,1.05168 -3.0267,1.29892 -4.5791,1.29892 -2.5195,0 -4.7293,-0.70422 -6.3131,-2.73243 -1.1174,-1.43663 -1.6087,-3.5775 -1.8434,-5.34906 l -0.2442,-1.8717 -20.9988,1.31457 0.1753,2.06265 c 0.5165,6.0564 2.7168,11.42113 7.0392,15.72478 5.3365,5.3616 14.742,6.28806 21.9003,6.28806 4.939,0 10.2098,-0.59469 14.7669,-2.60099 3.9156,-1.71207 7.1645,-4.2974 9.5025,-7.88431 2.2566,-3.44293 3.421,-7.25833 3.421,-11.37419 0,-3.4398 -0.8357,-6.68555 -2.6104,-9.62769"
         style="fill:#141415;fill-opacity:1;fill-rule:nonzero;stroke:none;stroke-width:3.12993"
         id="path215" />
      <path
         d="m -1093.5181,491.45098 c 0.6855,4.79194 2.651,8.83268 5.8467,12.01896 3.4774,3.48675 10.0065,5.2583 19.4151,5.2583 5.3866,0 9.878,-0.77623 13.3554,-2.30363 3.4148,-1.493 6.0972,-3.71211 7.972,-6.58853 1.8904,-2.8858 2.8482,-6.06582 2.8482,-9.45241 0,-2.87016 -0.7105,-5.49931 -2.1064,-7.81233 -1.3772,-2.29423 -3.6621,-4.2661 -6.7952,-5.86549 -3.2738,-1.66826 -8.8075,-3.34904 -16.4478,-4.99539 -4.6104,-0.96088 -6.0282,-1.8717 -6.6949,-2.47577 -1.1894,-1.02351 -1.8029,-2.23792 -1.8029,-3.59944 0,-1.70582 0.7325,-3.21445 2.1127,-4.3694 1.3084,-1.108 3.2176,-1.67137 5.6715,-1.67137 2.8639,0 5.1801,0.71048 6.8828,2.10644 1.4585,1.20189 2.4914,2.97345 3.0798,5.28647 l 13.9689,-0.81692 c -0.8764,-4.75125 -2.9171,-8.29434 -6.0783,-10.53224 -3.6089,-2.56029 -9.0205,-3.85609 -16.0879,-3.85609 -5.7935,0 -10.3883,0.72302 -13.6497,2.14401 -3.18,1.39596 -5.5806,3.31147 -7.1331,5.69649 -1.5587,2.38189 -2.3506,4.94842 -2.3506,7.63393 0,4.05325 1.5306,7.43671 4.551,10.0596 3.1705,2.77627 8.4508,4.96409 16.141,6.69807 5.1644,1.12991 8.2976,2.3099 9.8468,3.70899 1.637,1.46793 2.4696,3.1988 2.4696,5.14248 0,2.02506 -0.8701,3.80601 -2.5791,5.29585 -1.6589,1.43665 -3.9782,2.1628 -6.889,2.1628 -3.9125,0 -6.9672,-1.37405 -9.0862,-4.0877 -1.0923,-1.40535 -1.8749,-3.31148 -2.3318,-5.67146 z m 25.2618,18.84223 c -9.8374,0 -16.7421,-1.92492 -20.5199,-5.71841 -3.6339,-3.6182 -5.7873,-8.2505 -6.4007,-13.76546 l -0.091,-0.81691 17.1865,-1.0767 0.1127,0.7011 c 0.3882,2.42258 1.1112,4.32557 2.1473,5.66206 1.8027,2.30677 4.4444,3.4805 7.8498,3.4805 2.5259,0 4.4977,-0.59783 5.8624,-1.77782 1.352,-1.17998 2.0407,-2.56655 2.0407,-4.11586 0,-1.48045 -0.6573,-2.82008 -1.95,-3.97816 -1.3051,-1.17684 -4.3788,-2.30362 -9.1394,-3.34589 -7.9562,-1.79034 -13.4619,-4.09395 -16.8328,-7.0455 -3.3741,-2.92961 -5.0862,-6.71059 -5.0862,-11.23959 0,-2.99537 0.8764,-5.84987 2.6041,-8.4884 1.7216,-2.64167 4.3538,-4.75437 7.8156,-6.27553 3.4648,-1.51176 8.2692,-2.27548 14.2787,-2.27548 7.396,0 13.1144,1.39284 16.9925,4.14092 3.7089,2.62916 6.0157,6.80761 6.8607,12.42586 l 0.1283,0.84821 -17.0236,0.99219 -0.141,-0.66041 c -0.4757,-2.27234 -1.3803,-3.97503 -2.6917,-5.05173 -1.4147,-1.1612 -3.3991,-1.75276 -5.8905,-1.75276 -2.072,0 -3.6433,0.44132 -4.6637,1.30518 -1.0329,0.86387 -1.5556,1.92491 -1.5556,3.17063 0,0.89516 0.4163,1.69018 1.274,2.42569 0.8324,0.75746 2.842,1.46169 5.9813,2.11899 7.7779,1.67451 13.4399,3.40223 16.8359,5.13309 3.3991,1.73086 5.8968,3.90303 7.4242,6.45082 1.5462,2.56339 2.3317,5.46172 2.3317,8.61983 0,3.69958 -1.0454,7.16442 -3.1048,10.30689 -2.0407,3.1362 -4.9516,5.54936 -8.6511,7.16755 -3.6777,1.61506 -8.382,2.4351 -13.9845,2.4351"
         style="fill:#35b357;fill-opacity:1;fill-rule:nonzero;stroke:none;stroke-width:3.12993"
         id="path219" />
      <path
         d="m -829.4527,512.45286 v -64.39535 h 54.24496 v 17.99714 h -30.57635 v 5.12058 h 28.36663 v 17.43064 h -28.36663 v 5.08299 h 30.61705 v 18.764 z"
         style="fill:#141415;fill-opacity:1;fill-rule:nonzero;stroke:none;stroke-width:3.12993"
         id="path223" />
      <path
         d="m -825.88241,508.88254 h 47.14626 v -11.62459 h -30.62018 v -12.22241 h 28.36975 V 474.7443 h -28.36975 v -12.25997 h 30.57948 v -10.85775 h -47.10556 z m 48.88648,1.74024 h -50.62673 v -60.73645 h 50.58292 v 14.33826 h -30.57323 v 8.77947 h 28.36351 v 13.77173 h -28.36351 v 8.73877 h 30.61704 z"
         style="fill:#35b357;fill-opacity:1;fill-rule:nonzero;stroke:none;stroke-width:3.12993"
         id="path227" />
      <path
         d="m -775.10984,512.50762 h -54.39833 v -64.50488 h 54.35765 v 18.10982 h -30.57638 v 5.00163 h 28.36349 v 17.54644 h -28.36349 v 4.97033 h 30.61706 z m -29.25241,-20.2413 v -2.24104 h 28.36663 v -20.2726 h -28.36663 v -2.2786 h 30.64836 v -20.83912 h -57.15892 v 67.24045 l 57.13074,0.0657 v -21.60908 z"
         style="fill:#ffffff;fill-opacity:1;fill-rule:evenodd;stroke:none;stroke-width:3.12993"
         id="path231" />
      <path
         d="m -830.67532,513.67541 56.73324,0.0657 v -21.20845 l -30.61705,-0.0657 v -2.63853 h 28.36039 v -19.87825 h -28.36039 v -2.67297 h 30.64836 v -20.43849 h -56.76455 z m 57.13075,0.46323 -57.52826,-0.0657 v -67.63483 h 57.55956 v 21.23664 h -30.64835 v 1.87796 h 28.36351 v 20.67322 h -28.36351 v 1.84353 l 30.61705,0.0626 z"
         style="fill:#050606;fill-opacity:1;fill-rule:nonzero;stroke:none;stroke-width:3.12993"
         id="path235" />
    </g>
  </g>
</svg>
